<svg id="logosandtypes_com"
    xmlns="http://www.w3.org/2000/svg" viewBox="0 0 150 150">
    <style>.st1{fill:#1d63a7}.st2{fill:#008494}</style>
    <path d="M0 0h150v150H0V0z" fill="none" id="Layer_3"/>
    <g id="navig_8">
        <path id="navig_8_shape13_2_" class="st1" d="M75.2 51.5c-1.2-.8-5.1-3.8-5.9-7.2-.1-.4-.1-.8-.1-1.2 0-1.5.4-2.8 1.2-3.9 1.4-1.9 3.6-2.6 5.1-2.6 1.8 0 3.7 1 4.9 2.6 1 1.2 1.5 2.6 1.5 4 0 .4 0 .8-.1 1.2-.8 3.8-5.2 7-5.7 7.4l21.6 18.8c1.7-1.9 10-11.7 12.1-21.7.3-1.5.4-2.9.4-4.2 0-9-2.9-16.8-8.4-22.7-6.4-6.8-16-10.8-26.2-10.8h-.1c-10.5 0-20 3.9-26.3 10.8-5.3 5.8-8 13.4-8 22.4 0 1.4.2 2.9.5 4.4C44 60 54.3 69.2 54.4 69.4l.1.2 20.7-18.1c0 .1 0 .1 0 0z"/>
        <path id="navig_8_shape12_2_" class="st2" d="M75.9 91.6v.4c1.3.9 5.4 4.1 6.2 7.7.1.4.1.8.1 1.2 0 1.9-.6 3.6-1.8 4.8-1.5 1.6-3.5 2.1-4.9 2.2-1.9 0-3.9-1-5.3-2.8-1-1.3-1.6-2.8-1.6-4.2 0-.4 0-.8.1-1.2.8-4 5.4-7.4 6.1-7.9L54.4 69.9 50 73.6c-.1.1-9.3 7.6-12.5 18.7-.8 2.6-1.2 5.2-1.2 7.8 0 8.9 2.9 16.9 8.3 23.3 7.3 8.6 18.9 13.7 31 13.7 11.8 0 23.1-4.9 30.3-13.2 5.5-6.4 8.5-14.6 8.5-23.8 0-2.2-.3-4.6-1-6.9-3-10.6-12-18.8-12.1-18.9l-3.7-3.2-.1.1-21.6 20.4z"/>
        <path id="navig_8_shape11_2_" d="M69.6 43.2c0-1.5.4-2.7 1.1-3.6l-22-18.1c-5 5.4-8.1 13-8.1 22.7 0 1.5.2 3 .5 4.5l28.7-4.4c-.2-.4-.2-.8-.2-1.1z" fill="#2ca8d0"/>
        <path id="navig_8_shape10_2_" d="M81.3 43.2c0 .4 0 .7-.1 1.1l28.9 4.6c.3-1.4.5-2.9.5-4.3 0-9.8-3.4-17.5-8.6-23.1L80 39.6c.8.9 1.3 2.2 1.3 3.6z" fill="#1e4685"/>
        <path id="navig_8_shape9_2_" d="M75.4 51.1c-1-.7-4.9-3.6-5.7-6.9L41 48.6c2.4 11.5 12.9 20.8 12.9 20.8l.2.2 21.4-18v-.5z" fill="#48bee2"/>
        <path id="navig_8_shape8_2_" class="st1" d="M79.9 39.5l22-18.1c-6.8-7.3-16.8-10.9-26.6-11v26.7c1.8 0 3.5 1 4.6 2.4z"/>
        <path id="navig_8_shape7_2_" d="M75.4 37.1V10.4h-.1c-9.9 0-19.9 3.5-26.6 10.9l22 18.1c1.2-1.5 3.1-2.3 4.7-2.3z" fill="#2d8bba"/>
        <path id="navig_8_shape6_2_" d="M75.4 92.1v.2c.8.5 5.4 3.8 6.3 7.6l32.2-6.8C110.8 82.2 101.7 74 101.7 74L98 70.8c-.2.3-.4.4-.4.4L75.4 92.1z" fill="#44bdac"/>
        <path id="navig_8_shape5_2_" d="M75.5 107.4c-1.9 0-3.7-1.1-4.9-2.6l-26.4 18.8c7.7 9.1 19.7 13.9 31.4 13.9l-.1-30.1z" fill="#046486"/>
        <path id="navig_8_shape4_2_" d="M113.8 93l-32.2 6.8c.1.4.1.7.1 1.1 0 2-.7 3.4-1.7 4.5l26.1 18.7c5.3-6.1 8.6-14.2 8.6-24.1.1-2.4-.3-4.7-.9-7z" fill="#25a9aa"/>
        <path id="navig_8_shape3_2_" class="st2" d="M75.5 107.4l.1 30.1c11.5 0 23-4.6 30.6-13.4l-26.1-18.7c-1.3 1.4-3.1 2-4.6 2z"/>
        <path id="navig_8_shape2_2_" d="M69.1 101c0-.4 0-.7.1-1.1L37 92.2c-.7 2.5-1.2 5.1-1.2 7.9 0 9.6 3.3 17.5 8.4 23.6l26.4-18.8c-.9-1.2-1.5-2.5-1.5-3.9z" fill="#2b4976"/>
        <path id="navig_8_shape1_2_" d="M81.2 44.2c-.8 3.8-5.6 7.1-5.6 7.1l-.2-.2v.4L54 69.5l-4.4 3.7s-9.3 7.6-12.7 18.9l32.3 7.7c.8-4.1 6-7.7 6-7.7l.1-.1 22.2-20.9.4-.4c1.8-2 10.1-11.8 12.2-22l-28.9-4.5z" fill="#292b65"/>
    </g>
</svg>
